<svg viewBox="0 0 96 96" xmlns="http://www.w3.org/2000/svg" xmlns:xlink="http://www.w3.org/1999/xlink" id="Icons_Snooze" overflow="hidden"><style>
.MsftOfcThm_Background1_Fill_v2 {
 fill:#FFFFFF; 
}
</style>
<path d="M23.5 62.4C23.5 50.3 33.3 40.4 45.5 40.4 57.6 40.4 67.5 50.2 67.5 62.4 67.5 74.5 57.7 84.4 45.5 84.4L45.5 84.4C33.4 84.3 23.5 74.5 23.5 62.4ZM47.5 34.5 47.5 30.4 51.5 30.4C52.6 30.4 53.5 29.5 53.5 28.4 53.5 27.3 52.6 26.4 51.5 26.4L39.5 26.4C38.4 26.4 37.5 27.3 37.5 28.4 37.5 29.5 38.4 30.4 39.5 30.4L43.5 30.4 43.5 34.5C28.1 35.6 16.5 49 17.6 64.4 18 71 20.9 77.2 25.5 82L21.7 89.5C21.2 90.5 21.6 91.7 22.6 92.2L22.6 92.2C22.9 92.3 23.2 92.4 23.5 92.4 24.3 92.4 24.9 92 25.3 91.3L28.6 84.7C38.6 92.3 52.4 92.3 62.4 84.7L65.7 91.3C66.1 92 66.7 92.4 67.5 92.4 67.8 92.4 68.1 92.3 68.4 92.2 69.4 91.7 69.8 90.5 69.3 89.5L69.3 89.5 65.5 82C76.3 71 76.1 53.3 65.1 42.5 60.3 37.8 54.1 35 47.5 34.5Z" class="MsftOfcThm_Background1_Fill_v2" stroke="none" stroke-width="1" stroke-linecap="butt" stroke-linejoin="miter" stroke-miterlimit="4" fill="#FFFFFF" fill-opacity="1"/><path d="M43.5 60.4 29.5 60.4 29.5 64.4 45.5 64.4C46.6 64.4 47.5 63.5 47.5 62.4L47.5 46.4 43.5 46.4 43.5 60.4Z" class="MsftOfcThm_Background1_Fill_v2" stroke="none" stroke-width="1" stroke-linecap="butt" stroke-linejoin="miter" stroke-miterlimit="4" fill="#FFFFFF" fill-opacity="1"/><path d="M77.7 34.6 69.4 26.3C67.9 24.7 65.3 24.7 63.8 26.2 63.8 26.2 63.8 26.2 63.7 26.3L58.5 31.4 72.5 45.4 77.7 40.2C79.2 38.6 79.2 36.2 77.7 34.6L77.7 34.6Z" class="MsftOfcThm_Background1_Fill_v2" stroke="none" stroke-width="1" stroke-linecap="butt" stroke-linejoin="miter" stroke-miterlimit="4" fill="#FFFFFF" fill-opacity="1"/><path d="M32.5 31.4 27.3 26.2C25.8 24.6 23.2 24.6 21.7 26.1 21.7 26.1 21.7 26.1 21.6 26.2L13.3 34.5C11.7 36 11.7 38.6 13.2 40.1 13.2 40.1 13.2 40.1 13.3 40.2L18.5 45.4 32.5 31.4Z" class="MsftOfcThm_Background1_Fill_v2" stroke="none" stroke-width="1" stroke-linecap="butt" stroke-linejoin="miter" stroke-miterlimit="4" fill="#FFFFFF" fill-opacity="1"/><path d="M52.6 17.4 52.6 15.6 56.2 12 52.6 12 52.6 10.2 59.8 10.2 59.8 12 56.2 15.6 59.8 15.6 59.8 17.4Z" class="MsftOfcThm_Background1_Fill_v2" stroke="none" stroke-width="1" stroke-linecap="butt" stroke-linejoin="miter" stroke-miterlimit="4" fill="#FFFFFF" fill-opacity="1"/><path d="M61.6 15.6 61.6 12 67 6.6 61.6 6.6 61.6 3 72.4 3 72.4 6.6 67 12 72.4 12 72.4 15.6Z" class="MsftOfcThm_Background1_Fill_v2" stroke="none" stroke-width="1" stroke-linecap="butt" stroke-linejoin="miter" stroke-miterlimit="4" fill="#FFFFFF" fill-opacity="1"/><path d="M85 12 79.6 17.4 85 17.4 85 21 74.2 21 74.2 17.4 79.6 12 74.2 12 74.2 8.4 85 8.4Z" class="MsftOfcThm_Background1_Fill_v2" stroke="none" stroke-width="1" stroke-linecap="butt" stroke-linejoin="miter" stroke-miterlimit="4" fill="#FFFFFF" fill-opacity="1"/></svg>